<svg width="338" height="99" viewBox="0 0 338 99" fill="none" xmlns="http://www.w3.org/2000/svg">
<path d="M337.009 70.0142C336.282 75.8824 331.06 81.0419 321.916 85.2879C312.8 89.5208 299.932 92.7737 284.22 94.9047C252.804 99.1657 210.134 98.9264 163.665 93.1658C117.195 87.4052 75.7585 77.2184 46.3335 65.4153C31.6175 59.5123 19.9331 53.2157 12.1267 46.8851C4.29642 40.535 0.492939 34.2566 1.22039 28.3884C1.94784 22.5202 7.1692 17.3606 16.3131 13.1147C25.4289 8.88179 38.2971 5.62888 54.0091 3.49787C85.4254 -0.763114 128.095 -0.523783 174.565 5.2368C221.034 10.9974 262.471 21.1842 291.896 32.9873C306.612 38.8903 318.296 45.1869 326.103 51.5175C333.933 57.8676 337.736 64.1459 337.009 70.0142Z" stroke="#9EAF7C"/>
</svg>
