<svg width="475" height="151" viewBox="0 0 475 151" fill="none" xmlns="http://www.w3.org/2000/svg">
<path d="M473.961 34.6494C475.415 43.0191 470.389 52.2372 459.728 61.7776C449.091 71.2973 432.961 81.0264 412.526 90.4008C371.661 109.146 313.682 126.426 248.279 137.784C182.876 149.141 122.466 152.421 77.674 148.55C55.2741 146.615 36.8091 142.893 23.5847 137.517C10.3317 132.13 2.4925 125.146 1.03904 116.776C-0.414414 108.406 4.61118 99.1882 15.2718 89.6478C25.9094 80.128 42.0387 70.399 62.4745 61.0246C103.339 42.2789 161.318 24.9994 226.721 13.6417C292.124 2.28392 352.534 -0.995591 397.326 2.87506C419.726 4.81072 438.191 8.53221 451.415 13.9082C464.668 19.2958 472.508 26.2798 473.961 34.6494Z" stroke="#9EAF7C"/>
</svg>
