<svg width="86" height="35" viewBox="0 0 86 35" fill="none" xmlns="http://www.w3.org/2000/svg">
<path d="M22.8 25.2V27H3.8V5.8C3.8 4.6 3.62667 3.64 3.28 2.92C2.96 2.17333 2.2 1.8 1 1.8H0.6V0.599999H5.4C6.09333 0.599999 6.66667 0.693332 7.12 0.879998C7.6 1.04 7.97333 1.32 8.24 1.72C8.53333 2.12 8.73333 2.65333 8.84 3.32C8.94667 3.98667 9 4.81333 9 5.8V25.2H22.8ZM37.4666 17.6C37.4666 16.4533 37.3732 15.4 37.1866 14.44C37.0266 13.4533 36.7732 12.6 36.4266 11.88C36.0799 11.16 35.6399 10.6 35.1066 10.2C34.5732 9.8 33.9599 9.6 33.2666 9.6C32.5732 9.6 31.9599 9.8 31.4266 10.2C30.8932 10.6 30.4532 11.16 30.1066 11.88C29.7599 12.6 29.4932 13.4533 29.3066 14.44C29.1466 15.4 29.0666 16.4533 29.0666 17.6C29.0666 18.7467 29.1466 19.8133 29.3066 20.8C29.4932 21.76 29.7599 22.6 30.1066 23.32C30.4532 24.04 30.8932 24.6 31.4266 25C31.9599 25.4 32.5732 25.6 33.2666 25.6C33.9599 25.6 34.5732 25.4 35.1066 25C35.6399 24.6 36.0799 24.04 36.4266 23.32C36.7732 22.6 37.0266 21.76 37.1866 20.8C37.3732 19.8133 37.4666 18.7467 37.4666 17.6ZM23.6666 17.6C23.6666 16.24 23.8799 14.96 24.3066 13.76C24.7599 12.56 25.3999 11.52 26.2266 10.64C27.0532 9.76 28.0532 9.06667 29.2266 8.56C30.4266 8.05333 31.7732 7.8 33.2666 7.8C34.7599 7.8 36.0932 8.05333 37.2666 8.56C38.4666 9.06667 39.4799 9.76 40.3066 10.64C41.1332 11.52 41.7599 12.56 42.1866 13.76C42.6399 14.96 42.8666 16.24 42.8666 17.6C42.8666 18.96 42.6399 20.24 42.1866 21.44C41.7599 22.64 41.1332 23.68 40.3066 24.56C39.4799 25.44 38.4666 26.1333 37.2666 26.64C36.0932 27.1467 34.7599 27.4 33.2666 27.4C31.7732 27.4 30.4266 27.1467 29.2266 26.64C28.0532 26.1333 27.0532 25.44 26.2266 24.56C25.3999 23.68 24.7599 22.64 24.3066 21.44C23.8799 20.24 23.6666 18.96 23.6666 17.6ZM46.0569 14.04C46.0569 12.8933 46.2702 11.92 46.6969 11.12C47.1502 10.32 47.7635 9.68 48.5369 9.2C49.3369 8.69333 50.2569 8.33333 51.2969 8.12C52.3369 7.90667 53.4569 7.8 54.6569 7.8H63.0569V8.88L59.4569 9.36C60.5769 9.78667 61.4835 10.44 62.1769 11.32C62.8969 12.2 63.2569 13.1067 63.2569 14.04C63.2569 15.1867 63.0435 16.16 62.6169 16.96C62.2169 17.7333 61.6435 18.36 60.8969 18.84C60.1502 19.32 59.2435 19.6667 58.1769 19.88C57.1369 20.0933 55.9635 20.2 54.6569 20.2C53.4569 20.2 52.4835 20.2667 51.7369 20.4C51.0169 20.5333 50.6569 20.8667 50.6569 21.4C50.6569 21.8533 51.0169 22.1467 51.7369 22.28C52.4835 22.3867 53.4569 22.4533 54.6569 22.48C56.0169 22.5067 57.2835 22.6533 58.4569 22.92C59.6569 23.1867 60.6969 23.5867 61.5769 24.12C62.4569 24.6267 63.1502 25.28 63.6569 26.08C64.1902 26.8533 64.4569 27.76 64.4569 28.8C64.4569 29.9733 64.2035 30.9467 63.6969 31.72C63.2169 32.52 62.5369 33.16 61.6569 33.64C60.7769 34.12 59.7369 34.4667 58.5369 34.68C57.3369 34.8933 56.0435 35 54.6569 35C53.2435 35 51.9369 34.8933 50.7369 34.68C49.5635 34.4667 48.5369 34.12 47.6569 33.64C46.7769 33.16 46.0835 32.52 45.5769 31.72C45.0969 30.9467 44.8569 29.9733 44.8569 28.8C44.8569 28.08 45.0169 27.44 45.3369 26.88C45.6569 26.2933 46.0702 25.7867 46.5769 25.36C47.1102 24.9333 47.6969 24.5733 48.3369 24.28C48.9769 23.9867 49.6169 23.76 50.2569 23.6C49.7502 23.44 49.3235 23.1867 48.9769 22.84C48.6302 22.4933 48.4569 22.0133 48.4569 21.4C48.4569 20.4933 48.9902 19.8267 50.0569 19.4C48.9369 19 47.9902 18.32 47.2169 17.36C46.4435 16.3733 46.0569 15.2667 46.0569 14.04ZM53.0969 24.12C52.2169 24.4933 51.5235 25.0533 51.0169 25.8C50.5102 26.52 50.2569 27.52 50.2569 28.8C50.2569 30.32 50.6569 31.4267 51.4569 32.12C52.2569 32.84 53.3235 33.2 54.6569 33.2C55.9902 33.2 57.0569 32.84 57.8569 32.12C58.6569 31.4267 59.0569 30.32 59.0569 28.8C59.0569 27.6 58.6835 26.6133 57.9369 25.84C57.1902 25.0667 56.2035 24.56 54.9769 24.32L53.0969 24.12ZM57.8569 14.04C57.8569 12.52 57.5502 11.3733 56.9369 10.6C56.3502 9.8 55.5902 9.4 54.6569 9.4C53.7235 9.4 52.9502 9.77333 52.3369 10.52C51.7502 11.24 51.4569 12.4133 51.4569 14.04C51.4569 15.6933 51.7502 16.8667 52.3369 17.56C52.9502 18.2533 53.7235 18.6 54.6569 18.6C55.5902 18.6 56.3502 18.2533 56.9369 17.56C57.5502 16.8667 57.8569 15.6933 57.8569 14.04ZM80.4744 17.6C80.4744 16.4533 80.381 15.4 80.1944 14.44C80.0344 13.4533 79.781 12.6 79.4344 11.88C79.0877 11.16 78.6477 10.6 78.1144 10.2C77.581 9.8 76.9677 9.6 76.2744 9.6C75.581 9.6 74.9677 9.8 74.4344 10.2C73.901 10.6 73.461 11.16 73.1144 11.88C72.7677 12.6 72.501 13.4533 72.3144 14.44C72.1544 15.4 72.0744 16.4533 72.0744 17.6C72.0744 18.7467 72.1544 19.8133 72.3144 20.8C72.501 21.76 72.7677 22.6 73.1144 23.32C73.461 24.04 73.901 24.6 74.4344 25C74.9677 25.4 75.581 25.6 76.2744 25.6C76.9677 25.6 77.581 25.4 78.1144 25C78.6477 24.6 79.0877 24.04 79.4344 23.32C79.781 22.6 80.0344 21.76 80.1944 20.8C80.381 19.8133 80.4744 18.7467 80.4744 17.6ZM66.6744 17.6C66.6744 16.24 66.8877 14.96 67.3144 13.76C67.7677 12.56 68.4077 11.52 69.2344 10.64C70.061 9.76 71.061 9.06667 72.2344 8.56C73.4344 8.05333 74.781 7.8 76.2744 7.8C77.7677 7.8 79.101 8.05333 80.2744 8.56C81.4744 9.06667 82.4877 9.76 83.3144 10.64C84.141 11.52 84.7677 12.56 85.1944 13.76C85.6477 14.96 85.8744 16.24 85.8744 17.6C85.8744 18.96 85.6477 20.24 85.1944 21.44C84.7677 22.64 84.141 23.68 83.3144 24.56C82.4877 25.44 81.4744 26.1333 80.2744 26.64C79.101 27.1467 77.7677 27.4 76.2744 27.4C74.781 27.4 73.4344 27.1467 72.2344 26.64C71.061 26.1333 70.061 25.44 69.2344 24.56C68.4077 23.68 67.7677 22.64 67.3144 21.44C66.8877 20.24 66.6744 18.96 66.6744 17.6Z" fill="white"/>
</svg>
